PathFileType	4	(X/Y/Z)	/Users/itak/Documents/Research/Walk-IL/dataset/trc/00008_00004.trc
DataRate	CameraRate	NumFrames	NumMarkers	Units	OrigDataRate	OrigDataStartFrame	OrigNumFrames
100.000000	100.000000	4	53	mm	100.000000	232	620
Frame#	Time	RPSI			LPSI			L3			STRN			T10			C7			CLAV			RBAK			LBAK			LSHO			LUPA			LAEL			LAOL			LWTS			LWPS			LFRA			LIFD			LHPS			LHTS			RSHO			RUPA			RAEL			RAOL			RWTS			RWPS			RFRA			RIFD			RHTS			RHPS			RBHD			LFHD			RFHD			LBHD			LHIP			RHIP			RASI			LASI			LKNE			LTHI			LANK			LTIP			LTOE			LMT1			LMT5			LHEE			RKNE			RTHI			RANK			RTIP			RTOE			RMT1			RMT5			RHEE			
		X1	Y1	Z1	X2	Y2	Z2	X3	Y3	Z3	X4	Y4	Z4	X5	Y5	Z5	X6	Y6	Z6	X7	Y7	Z7	X8	Y8	Z8	X9	Y9	Z9	X10	Y10	Z10	X11	Y11	Z11	X12	Y12	Z12	X13	Y13	Z13	X14	Y14	Z14	X15	Y15	Z15	X16	Y16	Z16	X17	Y17	Z17	X18	Y18	Z18	X19	Y19	Z19	X20	Y20	Z20	X21	Y21	Z21	X22	Y22	Z22	X23	Y23	Z23	X24	Y24	Z24	X25	Y25	Z25	X26	Y26	Z26	X27	Y27	Z27	X28	Y28	Z28	X29	Y29	Z29	X30	Y30	Z30	X31	Y31	Z31	X32	Y32	Z32	X33	Y33	Z33	X34	Y34	Z34	X35	Y35	Z35	X36	Y36	Z36	X37	Y37	Z37	X38	Y38	Z38	X39	Y39	Z39	X40	Y40	Z40	X41	Y41	Z41	X42	Y42	Z42	X43	Y43	Z43	X44	Y44	Z44	X45	Y45	Z45	X46	Y46	Z46	X47	Y47	Z47	X48	Y48	Z48	X49	Y49	Z49	X50	Y50	Z50	X51	Y51	Z51	X52	Y52	Z52	X53	Y53	Z53	

233	2.32	-945.6309814453125	1042.331176757812	-187.86083984375	-950.50537109375	1038.484375	-351.3335266113281	-953.296630859375	1108.9892578125	-274.7984619140625	-718.7224731445312	1295.334350585938	-278.1565246582031	-971.24755859375	1253.926513671875	-277.9317626953125	-914.038818359375	1518.72216796875	-297.3394775390625	-758.054443359375	1422.179809570312	-287.9494934082031	-969.5527954101562	1387.008911132812	-212.5610198974609	-931.7340087890625	1475.066162109375	-394.1268310546875	-828.0316772460938	1476.922729492188	-468.0532836914062	-865.6614990234375	1351.11279296875	-541.3130493164062	-885.9813842773438	1134.777221679688	-561.6339721679688	-938.7247924804688	1127.212768554688	-469.5993957519531	-801.205322265625	882.8368530273438	-504.7228393554688	-881.7014770507812	867.7418212890625	-540.1204223632812	-877.8428955078125	1018.266906738281	-565.11328125	-769.0222778320312	704.22509765625	-483.4041748046875	-849.430908203125	777.9403076171875	-538.4332275390625	-782.6038208007812	788.1719360351562	-516.8924560546875	-836.2957153320312	1508.661743164062	-122.1138763427734	-851.7706298828125	1440.35009765625	-46.50307464599609	-900.9541625976562	1175.960693359375	-10.88952732086182	-906.6876831054688	1143.786499023438	-106.1229019165039	-778.2708740234375	912.6409912109375	-34.18552017211914	-843.2565307617188	901.6288452148438	31.78638458251953	-890.0570068359375	1100.059936523438	7.505080699920654	-764.7818603515625	727.0118408203125	-43.15951156616211	-748.2637939453125	802.5115356445312	-15.17103958129883	-803.7473754882812	800.5692749023438	34.44952392578125	-862.6826171875	1695.023193359375	-229.5936889648438	-681.2247314453125	1712.43115234375	-338.3165283203125	-689.157958984375	1717.736938476562	-239.9605102539062	-859.5514526367188	1691.211669921875	-374.3210144042969	-843.8963623046875	949.2130737304688	-461.3816223144531	-836.7301025390625	932.4436645507812	-85.72828674316406	-730.4759521484375	965.012451171875	-156.8592071533203	-734.771240234375	993.5521240234375	-391.3630676269531	-651.9956665039062	538.75927734375	-405.0325927734375	-723.4381713867188	658.689208984375	-446.5818786621094	-705.6254272460938	38.7393913269043	-416.0421447753906	-698.0213012695312	288.7218627929688	-428.5372009277344	-496.9983215332031	55.05759811401367	-323.6518249511719	-557.7587890625	57.88081359863281	-313.78515625	-580.2221069335938	43.95575714111328	-417.1064758300781	-780.7205810546875	43.7363166809082	-370.7389526367188	-882.364501953125	497.3421020507812	-118.3730545043945	-831.5007934570312	766.5916137695312	-91.68165588378906	-1219.100708007812	111.7676544189453	-140.4600219726562	-961.116455078125	387.5790710449219	-116.312385559082	-1013.632507324219	44.67411804199219	-182.8621063232422	-1066.386474609375	60.93822860717773	-212.2510070800781	-1086.578247070312	46.75618743896484	-117.0623550415039	-1266.814453125	141.6493072509766	-185.0564727783203	
234	2.33	-938.1026611328125	1043.214599609375	-190.2857208251953	-942.885986328125	1039.442260742188	-353.7395324707031	-945.8522338867188	1109.966186523438	-277.4265441894531	-711.5254516601562	1296.74169921875	-280.6905517578125	-964.0057373046875	1254.824462890625	-280.7152099609375	-907.3323364257812	1519.69775390625	-300.0819396972656	-751.1785888671875	1423.49072265625	-290.5086975097656	-962.7479248046875	1387.915405273438	-215.3834228515625	-924.7755737304688	1476.054809570312	-396.8711547851562	-821.0343627929688	1478.28271484375	-470.6159973144531	-858.1406860351562	1352.464721679688	-544.1697387695312	-877.69189453125	1136.028442382812	-564.6280517578125	-930.8569946289062	1128.313842773438	-472.8786010742188	-792.4841918945312	884.3377075195312	-507.2890625	-872.5715942382812	869.03369140625	-543.1217651367188	-869.1337280273438	1019.557250976562	-568.0782470703125	-760.2640380859375	705.4930419921875	-485.6602478027344	-840.0048828125	779.352294921875	-541.2880859375	-773.2639770507812	789.8421630859375	-519.3841552734375	-829.7357788085938	1509.796997070312	-124.8248062133789	-845.2462768554688	1441.529052734375	-49.24706649780273	-894.6351318359375	1177.302856445312	-13.58643627166748	-900.08837890625	1145.062133789062	-108.8200912475586	-772.5072631835938	913.69091796875	-36.27773666381836	-837.6503295898438	902.9166259765625	29.57732963562012	-883.9476318359375	1101.43408203125	4.896845817565918	-759.5892944335938	728.0216064453125	-45.17534637451172	-742.88671875	803.4302368164062	-17.17071533203125	-798.4521484375	801.72021484375	32.34968566894531	-856.2660522460938	1696.05322265625	-232.0422515869141	-674.4383544921875	1713.637451171875	-340.2637023925781	-682.7274780273438	1718.76318359375	-241.8743286132812	-852.73828125	1692.4951171875	-376.7746887207031	-836.3959350585938	950.039794921875	-463.6496276855469	-828.9059448242188	933.5018920898438	-88.26407623291016	-722.8618774414062	966.466796875	-159.3993072509766	-727.1769409179688	994.5983276367188	-393.8822937011719	-647.7874755859375	538.0773315429688	-406.3146667480469	-718.0354614257812	658.6764526367188	-448.1594543457031	-705.2620239257812	38.34586334228516	-416.3293151855469	-695.6312255859375	288.3282470703125	-429.3106994628906	-496.7566528320312	53.62526702880859	-323.3983459472656	-557.5130615234375	56.92846298217773	-313.6865539550781	-579.7846069335938	42.72191619873047	-417.0506896972656	-780.4166259765625	44.022216796875	-371.1258544921875	-868.840087890625	497.3305969238281	-118.1080017089844	-822.091064453125	767.6771850585938	-93.56002807617188	-1214.203125	119.0424499511719	-139.9998016357422	-949.1058959960938	388.2857971191406	-115.9145584106445	-1013.629760742188	44.39248275756836	-182.8915557861328	-1064.591430664062	62.2719612121582	-212.0283660888672	-1084.876586914062	48.24966049194336	-116.8511734008789	-1260.266723632812	150.9761505126953	-184.5217590332031	
235	2.34	-930.6788330078125	1044.064331054688	-192.6737670898438	-935.3448486328125	1040.406860351562	-356.121826171875	-938.4534301757812	1110.953979492188	-280.0311889648438	-704.3429565429688	1298.128662109375	-283.1873168945312	-956.785888671875	1255.71240234375	-283.470947265625	-900.6307983398438	1520.661743164062	-302.7802124023438	-744.3202514648438	1424.779418945312	-293.0278625488281	-955.9681396484375	1388.8134765625	-218.1667633056641	-917.8333129882812	1477.025512695312	-399.5706787109375	-814.0623168945312	1479.615478515625	-473.1330261230469	-850.661865234375	1353.811889648438	-547.006591796875	-869.442626953125	1137.281982421875	-567.6629028320312	-923.054931640625	1129.396484375	-476.2213439941406	-783.72900390625	885.8740234375	-509.8658447265625	-863.3577880859375	870.3309326171875	-546.1773071289062	-860.412353515625	1020.853820800781	-571.0880737304688	-751.54248046875	706.6959228515625	-487.8018493652344	-830.424560546875	780.7904663085938	-544.1827392578125	-763.7555541992188	791.6109619140625	-521.886474609375	-823.1942138671875	1510.90966796875	-127.4936141967773	-838.7394409179688	1442.680053710938	-51.95188903808594	-888.3038940429688	1178.604736328125	-16.25645065307617	-893.48193359375	1146.3037109375	-111.4897384643555	-766.7283935546875	914.7154541015625	-38.37606048583984	-831.9989624023438	904.1689453125	27.37549018859863	-877.8109741210938	1102.769165039062	2.309974193572998	-754.3681640625	729.0006713867188	-47.20848083496094	-737.4730224609375	804.3273315429688	-19.18546867370605	-793.1249389648438	802.8486938476562	30.25823020935059	-849.8541870117188	1697.064208984375	-234.4599761962891	-667.6715698242188	1714.819580078125	-342.1874694824219	-676.3045654296875	1719.771240234375	-243.7706451416016	-845.94384765625	1693.766845703125	-379.1954345703125	-829.0149536132812	950.8683471679688	-465.9085083007812	-821.1458740234375	934.5280151367188	-90.79248046875	-715.3358764648438	967.9093627929688	-161.9415588378906	-719.6493530273438	995.6227416992188	-396.400634765625	-643.7946166992188	537.3909912109375	-407.628173828125	-712.846435546875	658.6353759765625	-449.7547302246094	-704.9345092773438	37.97653961181641	-416.6100463867188	-693.419921875	287.9365234375	-430.0965576171875	-496.5702514648438	52.34267044067383	-323.156982421875	-557.3170776367188	56.08538055419922	-313.6015014648438	-579.394775390625	41.62982940673828	-417.0085144042969	-780.1541137695312	44.25811767578125	-371.5122985839844	-854.8231811523438	497.309814453125	-117.7258529663086	-812.5994873046875	768.7587890625	-95.34549713134766	-1208.665771484375	126.8079147338867	-139.6162567138672	-936.4232788085938	388.9564514160156	-115.5301971435547	-1013.298645019531	44.06845474243164	-182.8774566650391	-1062.391845703125	63.79114151000977	-211.8033294677734	-1082.871215820312	50.25809860229492	-116.6238708496094	-1252.99267578125	160.7164001464844	-184.0761260986328	
236	2.35	-923.3826293945312	1044.853149414062	-194.9971771240234	-927.9073486328125	1041.353881835938	-358.460205078125	-931.1265869140625	1111.935180664062	-282.5828247070312	-697.1947021484375	1299.467163085938	-285.6338500976562	-949.6135864257812	1256.578002929688	-286.1755981445312	-893.939208984375	1521.5986328125	-305.4210510253906	-737.4879150390625	1426.022094726562	-295.4917907714844	-949.2208862304688	1389.69140625	-220.894775390625	-910.91552734375	1477.962158203125	-402.2150573730469	-807.11767578125	1480.897216796875	-475.5919189453125	-843.2252197265625	1355.128784179688	-549.8080444335938	-861.2298583984375	1138.513916015625	-570.7267456054688	-915.3153686523438	1130.433837890625	-479.6158447265625	-774.9411010742188	887.4166259765625	-512.4471435546875	-854.0662231445312	871.6088256835938	-549.2813720703125	-851.6787719726562	1022.133239746094	-574.1336669921875	-742.8219604492188	707.8388671875	-489.8510437011719	-820.7073364257812	782.2289428710938	-547.112548828125	-754.094482421875	793.4469604492188	-524.3916625976562	-816.6740112304688	1511.980224609375	-130.1046905517578	-832.2560424804688	1443.78076171875	-54.60258102416992	-881.97265625	1179.842529296875	-18.89732360839844	-886.8721313476562	1147.486572265625	-114.1304244995117	-760.9195556640625	915.6995239257812	-40.46396255493164	-826.30224609375	905.36376953125	25.1846809387207	-871.6568603515625	1104.040161132812	-0.250675231218338	-749.078369140625	729.9364013671875	-49.23119354248047	-732.0006713867188	805.1931762695312	-21.18812370300293	-787.7572021484375	803.938232421875	28.19660568237305	-843.4533081054688	1698.039306640625	-236.8411407470703	-660.9331665039062	1715.960083007812	-344.0797729492188	-669.8934326171875	1720.7470703125	-245.6441955566406	-839.1719360351562	1695.003295898438	-381.5764770507812	-821.7678833007812	951.6873168945312	-468.1455993652344	-813.4635009765625	935.4967041015625	-93.29721832275391	-707.9125366210938	969.3139038085938	-164.4739837646484	-712.21435546875	996.6046752929688	-398.9070739746094	-639.982177734375	536.708984375	-408.9786682128906	-707.8452758789062	658.5751342773438	-451.3627319335938	-704.6472778320312	37.63006973266602	-416.8846740722656	-691.363037109375	287.5511779785156	-430.9004211425781	-496.4316711425781	51.20713043212891	-322.9416198730469	-557.16357421875	55.3530158996582	-313.5442504882812	-579.0565795898438	40.67441940307617	-416.990234375	-779.9347534179688	44.44654846191406	-371.8968811035156	-840.38525390625	497.2928161621094	-117.2733535766602	-803.0435791015625	769.81787109375	-97.03710174560547	-1202.463623046875	135.0024871826172	-139.3307342529297	-923.1223754882812	389.5985717773438	-115.1951370239258	-1012.469543457031	43.74546051025391	-182.7751159667969	-1059.683349609375	65.54358673095703	-211.5676879882812	-1080.455688476562	52.85773086547852	-116.3717422485352	-1245.013061523438	170.7568511962891	-183.759765625	
